<?xml version="1.0" standalone="no"?>
<!DOCTYPE svg PUBLIC "-//W3C//DTD SVG 20010904//EN"
 "http://www.w3.org/TR/2001/REC-SVG-20010904/DTD/svg10.dtd">
<svg version="1.0" xmlns="http://www.w3.org/2000/svg"
 width="604.000000pt" height="604.000000pt" viewBox="0 0 604.000000 604.000000"
 preserveAspectRatio="xMidYMid meet">
<metadata>
Created by potrace 1.14, written by Peter Selinger 2001-2017
</metadata>
<g transform="translate(0.000000,604.000000) scale(0.100000,-0.100000)"
fill="#000000" stroke="none">
<path d="M3211 5916 c-8 -9 -15 -27 -15 -39 -1 -12 -5 -28 -9 -34 -5 -7 -6
-13 -3 -13 3 0 1 -11 -4 -25 -5 -14 -12 -36 -14 -48 -8 -43 -35 -93 -70 -129
-20 -21 -33 -38 -30 -38 7 0 -145 -149 -193 -190 -17 -14 -37 -24 -44 -22 -8
3 -11 1 -7 -3 8 -8 -34 -45 -51 -45 -6 0 -11 -4 -11 -9 0 -5 -13 -14 -30 -21
-16 -7 -27 -16 -24 -21 3 -5 -2 -6 -10 -3 -9 3 -16 1 -16 -5 0 -6 -10 -11 -22
-11 -12 0 -18 -3 -15 -6 7 -8 -99 -74 -118 -74 -7 0 -18 -7 -25 -15 -7 -8 -16
-12 -21 -9 -5 3 -9 0 -9 -5 0 -6 -3 -10 -7 -9 -5 1 -25 -6 -47 -15 -21 -9 -42
-17 -47 -17 -5 0 -9 -5 -9 -11 0 -6 -6 -9 -12 -7 -7 3 -19 -1 -26 -9 -8 -7
-18 -11 -23 -8 -5 4 -9 2 -9 -4 0 -6 -12 -14 -27 -17 -16 -4 -40 -16 -55 -26
-16 -11 -28 -16 -28 -11 0 4 -4 3 -8 -3 -4 -6 -29 -22 -57 -35 -63 -32 -96
-51 -113 -66 -7 -7 -18 -13 -23 -13 -5 0 -22 -11 -37 -25 -15 -14 -31 -25 -37
-25 -6 0 -16 -9 -23 -20 -7 -12 -17 -18 -22 -15 -5 3 -11 -4 -15 -15 -3 -11
-10 -19 -14 -17 -4 1 -30 -21 -57 -49 -65 -67 -96 -104 -86 -104 4 0 2 -4 -4
-8 -15 -10 -68 -102 -58 -102 4 0 -1 -9 -11 -20 -10 -11 -15 -20 -12 -20 3 0
0 -21 -8 -47 -8 -26 -13 -49 -10 -51 2 -2 -5 -19 -16 -38 -10 -19 -19 -40 -19
-47 0 -7 -9 -20 -20 -30 -12 -10 -18 -21 -15 -26 2 -5 -1 -11 -8 -14 -17 -6
-99 -171 -106 -212 -1 -5 -9 -20 -17 -32 -8 -13 -12 -23 -8 -23 4 0 1 -7 -6
-15 -6 -8 -9 -19 -5 -25 3 -5 2 -10 -3 -10 -5 0 -9 -6 -10 -12 0 -7 -3 -22 -6
-33 -15 -54 -28 -111 -29 -122 0 -7 -3 -13 -7 -13 -3 0 -7 -10 -8 -22 0 -13
-4 -39 -7 -58 -4 -19 -8 -46 -10 -60 -2 -14 -4 -25 -5 -25 -2 0 -7 -42 -13
-113 -2 -29 -7 -55 -10 -59 -4 -3 -2 -14 3 -24 6 -10 6 -20 1 -23 -4 -3 -7
-26 -6 -51 2 -25 -1 -45 -7 -45 -5 0 -6 -6 -2 -12 5 -7 8 -38 9 -68 1 -31 5
-61 9 -68 4 -7 2 -12 -4 -12 -6 0 -8 -5 -4 -11 4 -7 9 -26 11 -43 16 -115 2
-165 -47 -164 -16 1 -27 5 -24 10 3 4 -2 8 -10 8 -9 0 -16 5 -16 10 0 6 -7 10
-15 10 -8 0 -15 4 -15 9 0 11 -19 9 -39 -3 -10 -7 -12 -5 -6 5 4 8 -5 1 -21
-16 -16 -16 -28 -33 -27 -37 2 -5 -1 -8 -6 -8 -8 0 -31 -46 -39 -80 -7 -25 -9
-274 -3 -285 3 -5 7 -28 8 -50 4 -52 10 -100 13 -100 1 0 4 -20 15 -90 1 -11
3 -20 4 -20 3 0 10 -35 13 -63 1 -12 6 -22 10 -22 4 0 8 -8 8 -18 0 -10 6 -24
13 -31 10 -11 9 -12 -2 -6 -17 9 40 -75 63 -94 21 -17 81 -30 96 -21 15 9 57
-11 75 -37 7 -10 15 -33 18 -51 3 -18 13 -45 22 -59 12 -17 13 -23 4 -17 -11
6 -12 4 -4 -7 12 -16 32 -72 39 -109 2 -14 9 -37 14 -51 6 -15 8 -30 5 -33 -4
-3 -1 -6 5 -6 6 0 9 -7 6 -15 -4 -8 -1 -15 5 -15 6 0 8 -7 5 -15 -4 -8 -1 -15
6 -15 6 0 9 -4 5 -9 -3 -5 -1 -12 5 -16 6 -4 8 -10 5 -15 -3 -5 1 -23 10 -41
9 -17 18 -40 21 -52 2 -11 7 -23 11 -26 5 -3 10 -15 11 -26 2 -11 8 -24 13
-30 5 -5 9 -17 9 -27 0 -10 5 -18 11 -18 5 0 8 -4 4 -9 -3 -5 2 -17 11 -25 8
-9 13 -16 9 -16 -7 0 26 -62 37 -70 3 -3 8 -12 10 -20 3 -14 7 -20 35 -54 6
-7 10 -16 7 -18 -2 -3 5 -13 16 -23 11 -10 20 -24 20 -32 0 -7 7 -13 16 -13 8
0 12 -5 9 -10 -3 -6 -2 -10 4 -10 5 0 12 -8 16 -17 3 -10 22 -36 43 -59 20
-23 53 -60 72 -84 19 -23 67 -74 105 -113 39 -38 69 -74 67 -79 -1 -5 1 -7 6
-4 5 3 15 -3 24 -12 18 -20 56 -52 63 -52 2 0 27 -23 54 -50 28 -28 52 -50 53
-48 6 4 88 -55 88 -64 0 -5 5 -6 10 -3 6 3 10 1 10 -4 0 -6 7 -11 15 -11 8 0
15 -4 15 -10 0 -5 7 -10 15 -10 8 0 15 -5 15 -11 0 -5 4 -8 9 -5 4 3 16 -3 26
-14 10 -11 22 -17 26 -14 5 3 9 0 9 -5 0 -6 9 -11 21 -11 11 0 17 -4 14 -10
-3 -5 0 -10 7 -10 8 0 40 -13 71 -30 32 -16 65 -30 73 -30 8 0 14 -5 14 -11 0
-6 7 -9 15 -6 8 4 17 2 21 -4 3 -6 12 -8 20 -5 8 3 14 2 14 -2 0 -4 9 -8 20
-9 13 -1 18 2 13 10 -4 8 -2 8 9 -1 9 -7 20 -12 24 -11 5 1 14 0 19 -1 6 -1
46 -3 90 -4 61 -1 83 2 92 14 7 8 13 10 13 4 0 -14 131 23 142 40 4 6 8 8 8 3
0 -4 15 -1 34 7 19 8 37 12 40 8 3 -3 6 0 6 7 0 7 5 9 10 6 6 -3 10 -2 10 3 0
5 6 9 13 9 6 0 43 15 81 34 100 50 106 53 106 61 0 5 5 8 11 8 6 0 30 14 55
30 24 17 44 27 44 23 0 -4 5 0 11 10 5 9 14 17 20 17 5 0 22 11 37 25 15 14
33 25 40 25 7 0 15 7 18 15 4 8 10 15 15 15 10 0 26 12 61 45 11 11 17 13 12
5 -8 -15 27 14 98 82 22 21 44 38 50 38 6 0 9 3 5 6 -3 3 14 24 39 45 25 21
42 39 39 39 -3 0 5 11 19 25 14 14 30 25 36 25 5 0 9 6 7 13 -1 6 3 11 10 10
7 -2 10 4 7 12 -3 8 3 19 15 27 12 7 21 18 21 24 0 6 11 21 25 34 14 13 25 29
25 37 0 7 5 13 10 13 6 0 10 7 10 15 0 8 4 15 10 15 5 0 16 16 25 36 8 19 23
47 34 62 10 15 19 29 20 32 1 3 4 15 7 28 4 12 11 22 16 22 5 0 7 4 4 9 -4 5
-1 11 4 13 6 2 12 12 14 21 1 10 7 22 12 25 11 7 44 74 41 82 -1 3 6 16 16 30
9 13 17 32 17 42 0 9 7 24 16 32 8 9 13 16 9 16 -3 0 0 10 7 22 7 13 13 25 13
28 0 3 6 15 13 27 7 13 10 23 7 23 -4 0 1 7 9 16 9 8 14 20 11 25 -4 5 -2 9 3
9 5 0 15 13 22 29 7 19 17 28 26 24 8 -3 14 0 14 7 0 10 3 10 15 0 12 -10 15
-10 15 0 0 9 3 10 13 1 10 -8 17 -7 25 1 7 7 12 8 12 2 0 -6 7 -11 15 -11 8 0
15 4 15 9 0 4 4 7 8 5 17 -4 73 66 107 134 19 38 32 69 29 69 -2 0 2 10 10 23
7 12 17 36 21 52 12 42 12 44 15 50 1 3 4 10 5 15 1 6 4 12 5 15 1 3 4 10 5
15 1 6 3 11 5 13 1 1 3 10 5 19 2 9 10 39 19 65 8 26 18 64 20 83 3 19 9 49
13 65 15 51 8 170 -12 217 -27 62 -48 79 -82 68 -5 -1 -18 -1 -30 -1 -12 1
-26 -6 -32 -16 -6 -10 -11 -14 -11 -9 0 5 -6 3 -13 -3 -11 -8 -19 -5 -35 12
-17 18 -21 33 -19 84 1 34 6 59 11 55 5 -3 7 2 3 11 -3 9 0 23 8 31 11 11 12
16 2 19 -8 4 -9 8 -1 14 11 8 29 61 26 76 -1 4 4 7 10 7 9 0 8 4 -2 10 -8 5
-10 10 -4 10 9 0 14 35 16 128 0 17 3 32 7 32 5 0 7 356 1 370 -1 3 -3 25 -4
50 -2 25 -6 65 -11 90 -4 25 -7 52 -7 60 0 8 -2 22 -5 30 -7 18 -11 36 -16 75
-3 17 -10 42 -16 58 -6 15 -8 27 -6 27 3 0 -2 16 -10 36 -8 20 -12 40 -9 45 3
5 0 9 -5 9 -6 0 -11 9 -11 19 0 11 -4 22 -9 25 -10 7 -31 88 -35 134 -1 17 -5
34 -9 38 -3 4 -2 14 3 24 5 10 7 19 5 22 -4 4 -16 64 -19 98 -1 9 -5 20 -9 27
-4 6 -8 23 -9 37 -1 14 -5 26 -9 26 -3 0 -12 18 -19 40 -7 22 -17 40 -22 40
-4 0 -8 6 -8 14 0 7 -7 19 -15 26 -8 7 -12 16 -9 21 3 5 2 9 -3 9 -4 0 -19 18
-33 40 -13 22 -28 40 -32 40 -4 0 -8 5 -8 12 0 14 0 14 -133 150 -52 53 -98
94 -101 91 -3 -4 -6 1 -6 10 0 8 -9 18 -20 22 -23 7 -100 79 -100 93 0 6 -3
12 -7 14 -5 2 -20 21 -35 43 -15 22 -39 52 -53 67 -14 15 -25 32 -25 38 0 5
-7 10 -17 10 -9 0 -14 3 -11 6 5 5 -37 54 -46 54 -11 0 -126 122 -126 134 0 7
-7 19 -15 26 -8 7 -15 16 -15 21 0 5 -8 17 -17 27 -10 10 -27 30 -38 45 -11
16 -48 58 -82 95 -35 37 -65 75 -69 85 -3 9 -10 17 -15 17 -5 0 -9 6 -9 13 0
20 -139 177 -157 177 -5 0 -15 9 -22 19 -8 11 -20 17 -28 14 -7 -3 -13 1 -13
8 0 7 -3 9 -6 6 -4 -3 -16 -2 -27 4 -14 8 -18 8 -13 0 4 -6 3 -11 -3 -11 -5 0
-11 5 -13 11 -2 7 -9 5 -17 -5z"/>
</g>
</svg>
